<?xml version="1.0" standalone="no"?>
<!DOCTYPE svg PUBLIC "-//W3C//DTD SVG 20010904//EN"
 "http://www.w3.org/TR/2001/REC-SVG-20010904/DTD/svg10.dtd">
<svg version="1.0" xmlns="http://www.w3.org/2000/svg"
 width="700.000000pt" height="700.000000pt" viewBox="0 0 700.000000 700.000000"
 preserveAspectRatio="xMidYMid meet">
<metadata>
Created by potrace 1.11, written by Peter Selinger 2001-2013
</metadata>
<g transform="translate(0.000000,700.000000) scale(0.100000,-0.100000)"
fill="#000000" stroke="none">
<path d="M3298 6995 c-2 -1 -41 -5 -88 -9 -100 -7 -225 -22 -295 -36 -27 -5
-61 -12 -75 -14 -492 -90 -1015 -319 -1415 -619 -110 -83 -159 -121 -165 -128
-3 -4 -25 -23 -50 -44 -72 -59 -225 -210 -319 -315 -260 -290 -483 -644 -628
-1000 -61 -149 -145 -409 -168 -518 -2 -9 -8 -37 -14 -62 -11 -49 -13 -63 -35
-195 -34 -204 -40 -301 -40 -570 0 -283 13 -419 69 -705 20 -102 99 -387 124
-445 5 -11 14 -36 21 -55 7 -19 19 -49 26 -67 8 -17 14 -34 14 -37 0 -20 145
-314 213 -431 419 -723 1099 -1283 1892 -1555 109 -37 343 -102 413 -115 16
-2 64 -12 108 -20 43 -8 106 -18 139 -21 33 -3 62 -7 65 -9 3 -2 50 -7 105
-11 183 -15 603 -9 726 11 13 2 58 9 99 15 41 6 87 14 103 16 204 32 519 127
748 225 298 127 564 286 828 497 187 149 419 385 561 572 36 47 67 87 70 90
13 13 132 195 177 270 163 274 302 604 378 900 26 101 30 118 55 250 18 97 39
237 45 303 1 15 -2 27 -9 27 -6 0 -4 4 4 9 12 8 14 51 14 253 1 213 -9 452
-19 468 -2 3 -6 30 -9 60 -3 30 -8 64 -10 75 -2 11 -11 61 -21 110 -82 439
-277 913 -528 1285 -208 308 -512 629 -797 841 -165 122 -164 122 -360 238
-296 176 -671 321 -1027 395 -98 21 -243 43 -393 61 -54 7 -526 16 -532 10z"/>
</g>
</svg>
